# xmcd
#
# Track frame offsets:
#	150
#	11696
#	26091
#	42137
#	52186
#	64631
#	80078
#	91172
#	109155
#	126699
#	137793
#	151137
#	161186
#
# Disc length: 2527 seconds
#
# Revision: 1
# Processed by: cddbd v1.5PL3 Copyright (c) Steve Scherf et al.
# Submitted via: audiograbber 1.82.02
#
DISCID=b309dd0d
DTITLE=Highway Shadows - Cowboy's Sweetheart
DYEAR=1900
DGENRE=Country
TTITLE0=Cowbo's Sweetheart
TTITLE1=Every Little Thing
TTITLE2=Tulsa Time
TTITLE3=Stiefel's Banjo Breakdown
TTITLE4=Stand By Your Man
TTITLE5=Down At The Twist And Shout
TTITLE6=I Walk The Line
TTITLE7=Making Believe
TTITLE8=Chattahoochie
TTITLE9=Steel Guitar Rag
TTITLE10=Top Of The World
TTITLE11=Fox On The Run
TTITLE12=Amazing Grace
EXTD=
EXTT0=
EXTT1=
EXTT2=
EXTT3=
EXTT4=
EXTT5=
EXTT6=
EXTT7=
EXTT8=
EXTT9=
EXTT10=
EXTT11=
EXTT12=
PLAYORDER=
